<?xml version="1.0" standalone="no"?>
<!DOCTYPE svg PUBLIC "-//W3C//DTD SVG 20010904//EN"
 "http://www.w3.org/TR/2001/REC-SVG-20010904/DTD/svg10.dtd">
<svg version="1.0" xmlns="http://www.w3.org/2000/svg"
 width="636.000000pt" height="636.000000pt" viewBox="0 0 636.000000 636.000000"
 preserveAspectRatio="xMidYMid meet">
<metadata>
Created by potrace 1.11, written by Peter Selinger 2001-2013
</metadata>
<g transform="translate(0.000000,636.000000) scale(0.100000,-0.100000)"
fill="#000000" stroke="none">
<path d="M323 6029 l-283 -290 0 -2559 0 -2559 282 -290 283 -289 2575 0 2575
0 282 289 283 290 -1 2567 -1 2567 -290 283 -291 282 -2566 -1 -2566 -1 -282
-289z m1086 -1831 c91 -158 176 -304 188 -325 l22 -38 1 328 0 327 60 0 60 0
0 -440 0 -440 -62 0 -63 0 -169 293 c-93 160 -179 309 -192 331 l-22 38 6
-331 5 -331 -66 0 -67 0 0 440 0 441 66 -3 67 -3 166 -287z m1513 -143 c81
-236 147 -433 147 -437 1 -5 -30 -8 -67 -8 l-68 0 -43 135 -42 136 -146 -3
-147 -3 -41 -130 -41 -130 -68 -3 c-67 -3 -68 -3 -61 20 8 23 281 822 290 846
3 9 24 12 72 10 l68 -3 147 -430z m878 -5 l0 -440 -65 0 -65 0 0 440 0 440 65
0 65 0 0 -440z m970 148 c57 -161 106 -296 109 -300 3 -4 53 128 111 293 l104
299 73 0 73 0 0 -440 0 -440 -60 0 -61 0 3 310 c2 171 1 310 -2 310 -3 0 -47
-120 -99 -265 l-95 -265 -46 0 -47 0 -94 260 c-52 143 -96 260 -99 260 -3 0
-4 -137 -2 -305 l3 -305 -60 0 -61 0 0 440 0 440 73 0 73 0 104 -292z m-3197
-1830 c81 -238 147 -437 147 -441 0 -4 -30 -7 -67 -5 l-67 3 -42 130 -41 130
-146 3 -147 3 -42 -136 -43 -135 -57 0 c-57 0 -58 0 -58 29 0 22 175 551 270
819 12 32 12 32 79 32 l67 0 147 -432z m597 232 c51 -111 97 -197 101 -193 4
4 47 95 95 201 l88 192 68 0 c37 0 68 -2 68 -5 0 -3 -58 -122 -130 -265 l-130
-260 0 -175 0 -175 -65 0 -65 0 0 175 0 175 -130 260 c-71 143 -130 262 -130
265 0 3 31 5 69 5 l68 0 93 -200z m1221 -240 c82 -239 149 -436 149 -437 0 -2
-31 -3 -69 -3 l-69 0 -43 135 -42 135 -146 0 -146 0 -43 -135 -43 -135 -64 0
c-36 0 -65 3 -65 8 0 4 66 202 147 440 l148 432 69 -2 68 -3 149 -435z m1059
385 l0 -55 -130 0 -130 0 0 -385 0 -385 -65 0 -65 0 0 385 0 385 -130 0 -130
0 0 55 0 55 325 0 325 0 0 -55z m250 -611 c0 -14 2 -14 22 0 29 21 77 20 99 0
16 -15 20 -15 41 0 29 21 77 20 100 -1 15 -14 18 -32 18 -120 0 -85 -3 -103
-15 -103 -12 0 -15 16 -15 87 0 66 -4 91 -17 105 -21 23 -34 23 -67 -3 -24
-19 -26 -26 -26 -105 0 -68 -3 -84 -15 -84 -12 0 -15 16 -15 83 0 118 -32 157
-87 105 -20 -19 -23 -31 -23 -105 0 -67 -3 -83 -15 -83 -12 0 -15 20 -15 120
0 100 3 120 15 120 8 0 15 -7 15 -16z m510 -2 c15 -12 24 -33 27 -65 l6 -47
-82 0 c-91 0 -102 -10 -55 -57 23 -23 31 -25 75 -20 37 5 49 3 49 -7 0 -18
-22 -26 -75 -26 -55 0 -93 30 -104 83 -12 51 3 107 34 135 32 27 93 30 125 4z
m-620 -197 c0 -18 -5 -25 -19 -25 -11 0 -23 5 -26 10 -11 18 3 40 25 40 15 0
20 -7 20 -25z"/>
<path d="M2701 4330 c-1 -4 -23 -78 -51 -165 -27 -87 -50 -163 -50 -167 0 -4
47 -8 105 -8 58 0 105 3 105 8 -1 10 -108 338 -109 332z"/>
<path d="M1340 2599 c-7 -24 -29 -98 -51 -165 -21 -66 -39 -124 -39 -127 0 -4
47 -7 105 -7 58 0 105 3 105 8 0 12 -98 323 -104 329 -2 3 -10 -15 -16 -38z"/>
<path d="M3166 2630 c-3 -8 -27 -86 -54 -172 l-49 -158 109 0 c101 0 110 1
103 18 -3 9 -26 82 -51 162 -25 80 -46 150 -48 155 -2 6 -6 3 -10 -5z"/>
<path d="M5101 2094 c-12 -15 -21 -31 -21 -35 0 -5 29 -9 65 -9 70 0 78 7 49
48 -22 31 -67 29 -93 -4z"/>
</g>
</svg>
